<svg xmlns="http://www.w3.org/2000/svg" width="256" height="256" fill="none"><path fill="#000" d="M52.567 200.386c-6.925 0-12.873-.941-17.844-2.823-4.972-1.846-8.967-4.332-11.985-7.457-3.019-3.125-5.114-6.588-6.286-10.387l17.365-4.208c.782 1.598 1.918 3.178 3.41 4.74 1.49 1.598 3.497 2.912 6.019 3.942 2.556 1.066 5.77 1.598 9.64 1.598 5.47 0 9.997-1.331 13.584-3.995 3.587-2.628 5.38-6.96 5.38-12.997v-15.501h-.959c-.994 1.989-2.45 4.031-4.368 6.126-1.882 2.095-4.385 3.853-7.51 5.273-3.09 1.421-6.978 2.131-11.666 2.131-6.285 0-11.985-1.474-17.099-4.421-5.078-2.983-9.126-7.422-12.145-13.317-2.983-5.93-4.474-13.352-4.474-22.265 0-8.985 1.492-16.566 4.474-22.745 3.019-6.215 7.085-10.92 12.199-14.116 5.113-3.232 10.813-4.847 17.098-4.847 4.794 0 8.736.816 11.826 2.45 3.125 1.598 5.61 3.533 7.457 5.806 1.847 2.237 3.25 4.35 4.208 6.339h1.065v-13.53h19.017v83.15c0 6.995-1.67 12.784-5.007 17.365-3.338 4.581-7.902 8.008-13.69 10.28-5.788 2.273-12.358 3.409-19.709 3.409Zm.16-48.686c4.084 0 7.564-.994 10.44-2.983 2.877-1.988 5.06-4.847 6.552-8.576 1.492-3.728 2.237-8.203 2.237-13.423 0-5.149-.745-9.659-2.237-13.53-1.456-3.871-3.622-6.871-6.498-9.002-2.841-2.166-6.34-3.249-10.494-3.249-4.297 0-7.883 1.118-10.76 3.356-2.876 2.237-5.042 5.309-6.498 9.215-1.456 3.871-2.184 8.274-2.184 13.21 0 5.007.728 9.393 2.184 13.157 1.491 3.729 3.675 6.641 6.551 8.736 2.912 2.059 6.481 3.089 10.707 3.089Zm93.697 17.898c-7.99 0-14.915-1.758-20.774-5.273-5.86-3.516-10.405-8.434-13.637-14.755-3.196-6.321-4.794-13.708-4.794-22.159 0-8.452 1.598-15.856 4.794-22.213 3.232-6.356 7.777-11.292 13.637-14.808 5.859-3.516 12.784-5.273 20.774-5.273s14.915 1.757 20.774 5.273c5.859 3.516 10.387 8.452 13.583 14.808 3.232 6.357 4.847 13.761 4.847 22.213 0 8.451-1.615 15.838-4.847 22.159-3.196 6.321-7.724 11.239-13.583 14.755-5.859 3.515-12.784 5.273-20.774 5.273Zm.106-15.447c4.333 0 7.955-1.19 10.867-3.569 2.912-2.415 5.078-5.647 6.498-9.695 1.456-4.048 2.184-8.558 2.184-13.53 0-5.007-.728-9.535-2.184-13.583-1.42-4.084-3.586-7.333-6.498-9.748-2.912-2.414-6.534-3.622-10.867-3.622-4.439 0-8.132 1.208-11.079 3.622-2.912 2.415-5.096 5.664-6.552 9.748-1.421 4.048-2.131 8.576-2.131 13.583 0 4.972.71 9.482 2.131 13.53 1.456 4.048 3.64 7.28 6.552 9.695 2.947 2.379 6.64 3.569 11.079 3.569Zm99.996-100.356L211.37 184.406h-16.886l35.156-130.61h16.886Z"/></svg>